<svg xmlns="http://www.w3.org/2000/svg" viewBox="0 0 1389.59 273.62"><defs><style>.cls-1{fill:#fff;}</style></defs><g id="Layer_2" data-name="Layer 2"><g id="Layer_1-2" data-name="Layer 1"><polygon class="cls-1" points="499.29 239.32 510.61 239.32 510.61 269.28 513.02 269.28 513.02 239.32 524.33 239.32 524.33 237.12 499.29 237.12 499.29 239.32"/><polygon class="cls-1" points="564.66 254.16 583.25 254.16 583.25 251.96 564.66 251.96 564.66 239.32 585.34 239.32 585.34 237.12 562.25 237.12 562.25 269.28 585.57 269.28 585.57 267.07 564.66 267.07 564.66 254.16"/><path class="cls-1" d="M638.7,267.67c-7.74,0-13.72-6.34-13.72-14.47v-.09c0-8.09,5.88-14.38,13.67-14.38,4.87,0,8.11,2,10.94,4.73l1.72-1.75c-3.34-3-6.82-5.14-12.61-5.14-9.37,0-16.23,7.53-16.23,16.63v.09c0,9.24,6.86,16.54,16.14,16.54,5.74,0,9.45-2.25,12.88-5.6l-1.62-1.57C646.58,265.88,643.38,267.67,638.7,267.67Z"/><polygon class="cls-1" points="711.9 252 691.13 252 691.13 237.12 688.72 237.12 688.72 269.28 691.13 269.28 691.13 254.21 711.9 254.21 711.9 269.28 714.31 269.28 714.31 237.12 711.9 237.12 711.9 252"/><polygon class="cls-1" points="779.22 265.1 756.83 237.12 754.55 237.12 754.55 269.28 756.87 269.28 756.87 240.7 779.73 269.28 781.53 269.28 781.53 237.12 779.22 237.12 779.22 265.1"/><path class="cls-1" d="M836.7,236.57c-9.82,0-16.36,7.85-16.36,16.63v.09c0,8.78,6.44,16.54,16.27,16.54S853,262,853,253.2v-.09C853,244.33,846.53,236.57,836.7,236.57Zm13.77,16.72c0,8-5.75,14.38-13.77,14.38s-13.86-6.52-13.86-14.47v-.09c0-8,5.75-14.38,13.77-14.38s13.86,6.52,13.86,14.47Z"/><polygon class="cls-1" points="894.19 237.12 891.78 237.12 891.78 269.28 913.24 269.28 913.24 267.07 894.19 267.07 894.19 237.12"/><path class="cls-1" d="M964.15,236.57c-9.83,0-16.37,7.85-16.37,16.63v.09c0,8.78,6.45,16.54,16.27,16.54s16.37-7.86,16.37-16.63v-.09C980.42,244.33,974,236.57,964.15,236.57Zm13.76,16.72c0,8-5.74,14.38-13.76,14.38s-13.87-6.52-13.87-14.47v-.09c0-8,5.75-14.38,13.77-14.38s13.86,6.52,13.86,14.47Z"/><path class="cls-1" d="M1033.69,254.81h10.84V264a16.71,16.71,0,0,1-10.33,3.68c-8.67,0-13.91-6.2-13.91-14.52v-.09c0-7.77,5.52-14.38,13.4-14.38a14.67,14.67,0,0,1,10.43,3.86l1.57-1.79a17.07,17.07,0,0,0-11.87-4.23c-9.68,0-16,8-16,16.63v.09c0,9,6.07,16.54,16.31,16.54a19.62,19.62,0,0,0,12.75-4.82V252.6h-13.16Z"/><rect class="cls-1" x="1086.49" y="237.12" width="2.41" height="32.16"/><polygon class="cls-1" points="1131.88 254.16 1150.47 254.16 1150.47 251.96 1131.88 251.96 1131.88 239.32 1152.55 239.32 1152.55 237.12 1129.47 237.12 1129.47 269.28 1152.78 269.28 1152.78 267.07 1131.88 267.07 1131.88 254.16"/><path class="cls-1" d="M1202.21,252c-7.7-1.57-9.46-3.63-9.46-7v-.1c0-3.35,3.15-6.06,7.93-6.06a14,14,0,0,1,9.68,3.63l1.53-1.89a16.28,16.28,0,0,0-11.12-3.9c-6,0-10.43,3.68-10.43,8.45v.1c0,4.87,3.15,7.48,10.94,9,7.37,1.47,9.18,3.44,9.18,6.84v.09c0,3.68-3.34,6.39-8.21,6.39s-8.06-1.52-11.63-4.78l-1.58,1.79a18.54,18.54,0,0,0,13.07,5.15c6.26,0,10.76-3.58,10.76-8.78v-.09C1212.87,256.19,1209.72,253.52,1202.21,252Z"/><path class="cls-1" d="M251.25,58.43h0l-.11,0a29.2,29.2,0,0,0-2.92-.78c-30.06-8.12-86.39-23-107.07-28.64l0,0A19.57,19.57,0,0,0,136,28.3a19.85,19.85,0,0,0-5.26,39l.19.07c25.79,7,75,17.91,86.17,40.86,8.6,17.75.39,36.49-15.78,64,22.62-22.62,54.22-54,61.52-61.29.47-.44.92-.89,1.36-1.36l.2-.2s0,0,0,0a31.22,31.22,0,0,0-13.17-50.88Z"/><path class="cls-1" d="M185.24,152.23a19.92,19.92,0,0,0-24,3.18l-.16.13c-19,19.1-53.22,56.79-78.84,55-19.81-1.38-32.07-18-48-46,8.43,31.2,20,74.68,22.73,84.75.15.63.32,1.25.5,1.87l.08.27a.05.05,0,0,0,0,0,31.4,31.4,0,0,0,51,14h0l.09-.08c.74-.68,1.46-1.4,2.14-2.16C133,241,174.24,199.1,189.48,183.78v0a20,20,0,0,0-4.24-31.52Z"/><path class="cls-1" d="M59.1,159.82a19.86,19.86,0,0,0,9.3-22.19,1.38,1.38,0,0,0,0-.2c-6.8-25.84-21.88-74-7.53-95.07,11.09-16.3,31.43-18.52,63.32-18.21C93.28,15.82,50.3,4.08,40.35,1.37c-.61-.19-1.22-.35-1.84-.5L38.23.8s0,0,0,0A31.22,31.22,0,0,0,.65,37.58h0l0,.12c.21,1,.47,1.95.77,2.91C9.4,70.73,24.55,127,30,147.72h0A19.78,19.78,0,0,0,59.1,159.82Z"/><path class="cls-1" d="M946.91,85.92c0-26.8-21.56-48.6-48.06-48.6H754.68a8.17,8.17,0,0,0-8.12,8.21V188.38h25.28a8.18,8.18,0,0,0,8.12-8.21c0-.09.11-45.52.11-45.52l71.8-.11L853,136c10.48,13.27,30.53,38.27,36.67,45.65l.08.09a21.27,21.27,0,0,0,4.49,4.62c.4.27.76.5,1.1.7a8.88,8.88,0,0,0,.82.46,16,16,0,0,0,5.1.61h40.79c-2.87-3.23-5.84-6.66-8.89-10.23l-7-7.95-.13-.16C923.28,166.22,909,150.5,900,140.93l-5.59-6,8.09-.61C927.42,132.46,946.91,111.18,946.91,85.92Zm-166.84,16v-32H897.69a16,16,0,0,1,0,32Z"/><path class="cls-1" d="M501.57,180.26c0-.1,0-.18,0-.27v-.09l0-.35V155.12H354.65v-3.89s0-93.52,0-113.91h-25.3a8.18,8.18,0,0,0-8.12,8.21V180.18a8.15,8.15,0,0,0,7.81,8.19l.53,0h164l.46,0A8.19,8.19,0,0,0,501.57,180.26Z"/><path class="cls-1" d="M641.78,37.32H605.33a8.14,8.14,0,0,0-7.41,4.86s-59.57,118.94-73.13,146.21h33.07l.43,0a8.1,8.1,0,0,0,6.42-4.39l.23-.46L623.71,65.36l3.18,7.83c1,2.13,19.66,39.58,32,64.43l8.72,17.5H627.26v25.06a8.17,8.17,0,0,0,8,8.21h86.65L649.06,41.93A8,8,0,0,0,641.78,37.32Z"/><path class="cls-1" d="M1316.71,41.93a8.08,8.08,0,0,0-7.29-4.61H1273a8.14,8.14,0,0,0-7.41,4.86s-59.62,119-73.13,146.21h33.07l.43,0a8.09,8.09,0,0,0,6.41-4.39l.24-.46,58.77-118.14,3.18,7.83c1,2.14,19.67,39.61,32.06,64.49l8.69,17.44h-40.38v25.06a8.17,8.17,0,0,0,8,8.21h86.65S1334.74,78.63,1316.71,41.93Z"/><path class="cls-1" d="M1161.39,37.32H996.58a28.19,28.19,0,0,0-28,28.31v35.22a28.19,28.19,0,0,0,28,28.31h126.47a13.31,13.31,0,0,1,0,26.62H968.59v24.4a8.17,8.17,0,0,0,8.11,8.2h164.81a28.18,28.18,0,0,0,28-28.3V124.86a28.18,28.18,0,0,0-28-28.3H1015.24a13.32,13.32,0,0,1,0-26.63H1169.5V45.53A8.17,8.17,0,0,0,1161.39,37.32Z"/></g></g></svg>