<svg class="inline-block w-6 mr-5 logo" version="1.1" xmlns="http://www.w3.org/2000/svg" viewBox="0 0 24.46699 24.61512"><g style="opacity:0.72"><g style="opacity:0.43"><path d="M17.15778,13.76916s.90912.82249-.31063,2.43363c-1.21749,1.61476-6.9747,7.615-8.72608,8.23994-1.75281.62563-2.20368-.65285-2.20368-.65285S3.74815,20.40683,2.64367,13.10752c0,0,1.58768,5.93489,3.56819,6.09573C8.19228,19.36627,14.6273,11.5148,17.15778,13.76916Z" style="fill:#fff"></path><path d="M4.409,14.8413S3.2326,15.185,2.49832,13.30212C1.76253,11.41855-.3355,3.37254.04709,1.55356.43262-.26685,1.7596.01588,1.7596.01588s4.01605-.0764,10.81448,2.80367c0,0-5.88789-1.75356-7.06425-.15129C4.33633,4.272,7.65478,13.86391,4.409,14.8413Z" style="fill:#fff"></path><path d="M9.9011,3.46353s.2592-1.1999,2.26542-.94724c2.00547.25115,10.078,2.24188,11.49523,3.44764C25.07678,7.169,24.19632,8.2,24.19632,8.2s-1.84756,3.56736-7.6201,8.17016c0,0,4.34721-4.33916,3.49908-6.13679C19.22709,8.43719,9.21231,6.78274,9.9011,3.46353Z" style="fill:#fff"></path></g><path d="M17.157,13.76916s.90912.82249-.31063,2.43363c-1.2175,1.61476-6.9747,7.615-8.72608,8.23994-1.75281.62563-2.20368-.65285-2.20368-.65285S3.74739,20.40683,2.643,13.10752c0,0,1.5876,5.93489,3.5681,6.09573C8.19161,19.36627,14.62655,11.5148,17.157,13.76916Z" style="fill:#fff"></path><path d="M4.40829,14.8413s-1.17636.34365-1.91072-1.53918C1.76178,11.41855-.33693,3.37254.04634,1.55356.43187-.26685,1.75885.01588,1.75885.01588s4.016-.0764,10.81373,2.80367c0,0-5.88782-1.75356-7.0635-.15129C4.33557,4.272,7.654,13.86391,4.40829,14.8413Z" style="fill:#fff"></path><path d="M9.90035,3.46353s.25928-1.1999,2.26542-.94724c2.00547.25115,10.078,2.24188,11.49523,3.44764C25.07611,7.169,24.19564,8.2,24.19564,8.2s-1.84763,3.56736-7.62017,8.17016c0,0,4.34721-4.33916,3.49908-6.13679C19.22641,8.43719,9.21156,6.78274,9.90035,3.46353Z" style="fill:#fff"></path></g></svg>